<svg id="Layer_1" data-name="Layer 1" xmlns="http://www.w3.org/2000/svg" xmlns:xlink="http://www.w3.org/1999/xlink" viewBox="0 0 1772.96 79.75"><defs><style>.cls-1,.cls-4{fill:#fff;}.cls-1{fill-rule:evenodd;}.cls-2{fill:#b42b5b;}.cls-3{font-size:35.86px;fill:none;font-family:MuseoSans-700, Museo Sans;font-weight:700;}.cls-5{mask:url(#mask);}</style><mask id="mask" x="850.68" y="28.06" width="4.89" height="4.9" maskUnits="userSpaceOnUse"><g id="mask-8"><polygon id="path-7" class="cls-1" points="850.68 28.06 855.57 28.06 855.57 32.95 850.68 32.95 850.68 28.06"/></g></mask></defs><path class="cls-2" d="M1773,39.88a8.63,8.63,0,0,1-.32,2.37,8.92,8.92,0,0,1-2.33,4L1739.5,77.1a8.92,8.92,0,0,1-4,2.33,8.68,8.68,0,0,1-2.37.32H10a10,10,0,0,1-10-10V10A10,10,0,0,1,10,0H1733.09a9,9,0,0,1,6.41,2.66l30.81,30.8a9,9,0,0,1,2.6,5.49C1772.94,39.26,1773,39.57,1773,39.88Z"/><text class="cls-3" transform="translate(697.74 51.35)">VASCEPA <tspan class="cls-4" x="164.52" y="0">(IPE) PURITY</tspan></text><g id="Symbols"><g id="_0.0_nav__MobileDropDown_2.0_OnClick" data-name="0.0_nav__MobileDropDown_2.0_OnClick"><g id="element_logoVascepa" data-name="element/logoVascepa"><g id="Group-68"><path id="Fill-35" class="cls-1" d="M740.13,39.07l-.86,7.13a18.58,18.58,0,0,1-2.22.79,10.15,10.15,0,0,1-2.8.35c-1.31,0-3-.39-2.61-3.71a7,7,0,0,1,.6-2.25,3.28,3.28,0,0,1,1-1.29,4.13,4.13,0,0,1,1.64-.67,13.87,13.87,0,0,1,2.45-.27Zm5.69-5.8a6.91,6.91,0,0,0-.23-3.1,4.24,4.24,0,0,0-1.44-2,6,6,0,0,0-2.4-1,14.05,14.05,0,0,0-3-.3,27.13,27.13,0,0,0-3.83.26c-1.16.16-2.31.36-3.43.57l-.37.08-.68,5.58h2.17l1.24-2.88a9.29,9.29,0,0,1,1.95-.68,10,10,0,0,1,2.32-.29,3.32,3.32,0,0,1,1.5.28,2,2,0,0,1,.84.77,3.06,3.06,0,0,1,.36,1.25,8.36,8.36,0,0,1-.05,1.71l-.37,3-3.06.08c-.8,0-1.61.06-2.41.13a14.43,14.43,0,0,0-2.35.36,10.71,10.71,0,0,0-2.15.75,7.08,7.08,0,0,0-1.86,1.28,6.45,6.45,0,0,0-1.37,1.94,9.15,9.15,0,0,0-.72,2.66,11.73,11.73,0,0,0,0,2.71,5.16,5.16,0,0,0,.79,2.24,4.2,4.2,0,0,0,1.84,1.51,7.24,7.24,0,0,0,2.95.53,12.6,12.6,0,0,0,2.77-.29,13.09,13.09,0,0,0,2.24-.73,11,11,0,0,0,1.72-.92l.49-.34.16,1.81h7.21l.22-1.82L744,47.82Z"/><path id="Fill-37" class="cls-1" d="M762.55,38.84a7,7,0,0,0-1.87-1.3c-.68-.32-1.4-.61-2.13-.87L756.44,36a9,9,0,0,1-1.74-.79,3.33,3.33,0,0,1-1.09-1,2.34,2.34,0,0,1-.25-1.52,3.26,3.26,0,0,1,1.17-2.22,4.4,4.4,0,0,1,2.82-.82,9,9,0,0,1,2.19.26,3.53,3.53,0,0,1,1.39.67l.76,2.72h1.89l.68-5.56-.35-.07c-.95-.19-2-.36-3-.51a23.6,23.6,0,0,0-3.29-.23,12.17,12.17,0,0,0-3.26.43,8.75,8.75,0,0,0-2.72,1.28,6.93,6.93,0,0,0-1.95,2.12,7.13,7.13,0,0,0-1,2.84,6,6,0,0,0,.22,2.79,4.65,4.65,0,0,0,1.22,1.89A6.47,6.47,0,0,0,752,39.4c.68.3,1.39.57,2.12.81l2.08.69a6.62,6.62,0,0,1,1.69.81A3.23,3.23,0,0,1,759,42.85a2.79,2.79,0,0,1,.23,1.71,3.43,3.43,0,0,1-1.38,2.59,5.68,5.68,0,0,1-3.33.86,6.78,6.78,0,0,1-2.58-.44,5.13,5.13,0,0,1-1.62-1l-.87-3.23h-1.85l-.74,6.11.27.1c.21.08.55.19,1,.32s1,.25,1.64.37,1.32.22,2.06.31a19.1,19.1,0,0,0,2.3.13,15.13,15.13,0,0,0,4.1-.5,8.8,8.8,0,0,0,3-1.44,6.84,6.84,0,0,0,1.89-2.27,8.66,8.66,0,0,0,.85-2.85,6.12,6.12,0,0,0-.21-2.84,5.31,5.31,0,0,0-1.21-2"/><path id="Fill-39" class="cls-1" d="M784.2,46.67c-.37.1-.8.21-1.29.3s-1,.16-1.55.24-1.12.12-1.69.15-1.13.06-1.69.06a9.64,9.64,0,0,1-3.77-.61,4.82,4.82,0,0,1-2.14-1.71,5.88,5.88,0,0,1-.89-2.73,16.8,16.8,0,0,1,.09-3.71,19.42,19.42,0,0,1,.94-4.2,9.27,9.27,0,0,1,1.56-2.83,5.68,5.68,0,0,1,2.09-1.57,6.76,6.76,0,0,1,2.69-.51,11,11,0,0,1,2.55.29,8.08,8.08,0,0,1,1.85.67l.6,4h2.15l.85-6.89-.36-.07c-1-.19-2.13-.36-3.36-.51a32.84,32.84,0,0,0-3.9-.23,15.74,15.74,0,0,0-4.67.68,11.33,11.33,0,0,0-4,2.15,11.66,11.66,0,0,0-2.87,3.7,16.17,16.17,0,0,0-1.5,5.3,17.33,17.33,0,0,0,0,5,8.38,8.38,0,0,0,1.62,3.82,7.65,7.65,0,0,0,3.36,2.4,14.62,14.62,0,0,0,5.21.81,20.94,20.94,0,0,0,2.19-.12,22,22,0,0,0,2.2-.35,14.06,14.06,0,0,0,2-.58,8.43,8.43,0,0,0,1.73-.83l.2-.13.26-2.19Z"/><path id="Fill-41" class="cls-1" d="M827.39,54.18c-9.22.12-17.85-.06-25.09-.57-9.15-.66-15.39-1.77-18.23-3.21a9.88,9.88,0,0,1-1.49.69,14.41,14.41,0,0,1-2,.54q-1,.21-2.13.33l-.8.06a.43.43,0,0,0,.09.1,1.31,1.31,0,0,0,.12.11c2,1.87,10.64,3.08,23.8,3.32,8,.15,17.17-.08,26.7-.6,6.63-.37,13.42-.88,20.14-1.54-7.15.43-14.31.68-21.15.77"/><path id="Fill-43" class="cls-1" d="M797.75,29.59a3.39,3.39,0,0,1,2,.49,3,3,0,0,1,1.1,1.41,7.17,7.17,0,0,1,.41,2.35,23.43,23.43,0,0,1-.14,2.79h-9a16,16,0,0,1,.62-2.76,8.15,8.15,0,0,1,1.19-2.34,5.06,5.06,0,0,1,1.67-1.44,4.69,4.69,0,0,1,2.22-.5m6.72-.6a6.45,6.45,0,0,0-2.79-1.67,12.46,12.46,0,0,0-3.54-.49,11,11,0,0,0-8,3c-2,2-3.25,4.94-3.74,8.85a20.94,20.94,0,0,0-.07,5.1,8.42,8.42,0,0,0,1.39,3.81,6.79,6.79,0,0,0,3.12,2.35,13.54,13.54,0,0,0,4.94.78,15.69,15.69,0,0,0,2.28-.16,17.05,17.05,0,0,0,2.15-.42,19.49,19.49,0,0,0,1.9-.58,10.91,10.91,0,0,0,1.52-.71l.22-.12.25-2.07-.56.12c-.42.09-.89.17-1.41.25s-1,.15-1.58.21-1.06.11-1.63.15-1,.05-1.53.05a7.23,7.23,0,0,1-3.4-.66,4.25,4.25,0,0,1-1.8-1.76,6.21,6.21,0,0,1-.65-2.62,19.43,19.43,0,0,1,.13-3.2H806l.29-2.34a13.25,13.25,0,0,0-.14-4.75,6.83,6.83,0,0,0-1.65-3.1"/><path id="Fill-45" class="cls-1" d="M823.94,38.72a16.06,16.06,0,0,1-2.27,7.17,5.18,5.18,0,0,1-4.58,2.36c-.81,0-1.63,0-2.44-.1-.66-.06-1.28-.13-1.84-.23l2.05-17.08a11.48,11.48,0,0,1,1.95-.45,9,9,0,0,1,4.8.26,3.63,3.63,0,0,1,1.6,1.44,6.42,6.42,0,0,1,.82,2.62,16.72,16.72,0,0,1-.09,4m3.72-8.84a6.76,6.76,0,0,0-2.79-2.28,9.57,9.57,0,0,0-4-.77A12.29,12.29,0,0,0,819,27a15.22,15.22,0,0,0-1.83.4,11.7,11.7,0,0,0-1.63.62,5.46,5.46,0,0,0-.64.32l.08-.9h-7.34l-.22,1.81,2.54.59-3.42,28.24-3,.56-.23,1.87h11.84l.23-1.89L811.48,58l.68-5.58c0-.15,0-.33.06-.56s0-.36,0-.56l0-.15c0-.27,0-.52,0-.78v-.07c.66.12,1.35.21,2.06.28.91.09,1.8.13,2.64.13a12.59,12.59,0,0,0,4.77-.86,10.58,10.58,0,0,0,3.65-2.47,12.5,12.5,0,0,0,2.45-3.85,19,19,0,0,0,1.25-5,17.29,17.29,0,0,0,0-5,9,9,0,0,0-1.45-3.71"/><path id="Fill-47" class="cls-1" d="M843.05,39.07l-.87,7.13A19.24,19.24,0,0,1,840,47a10,10,0,0,1-2.78.35c-1.32,0-3-.39-2.61-3.71a7,7,0,0,1,.59-2.25,3.38,3.38,0,0,1,1.05-1.29,4.22,4.22,0,0,1,1.64-.67,13.64,13.64,0,0,1,2.44-.27ZM847,47.86l1.76-14.37a6.73,6.73,0,0,0-.2-3.05,4.23,4.23,0,0,0-1.43-2,5.85,5.85,0,0,0-2.36-1,14.52,14.52,0,0,0-3-.29,28,28,0,0,0-3.77.25c-1.14.16-2.27.35-3.38.58l-.35.07-.68,5.5h2.14L837,30.7a10.16,10.16,0,0,1,4.21-.95,3.43,3.43,0,0,1,1.48.27,2,2,0,0,1,.82.76,2.91,2.91,0,0,1,.36,1.24,7.45,7.45,0,0,1-.05,1.68l-.37,3-3,.08c-.79,0-1.59,0-2.38.12a14.11,14.11,0,0,0-2.31.36,10.63,10.63,0,0,0-2.12.74,6.86,6.86,0,0,0-1.83,1.26,6.31,6.31,0,0,0-1.35,1.92,8.79,8.79,0,0,0-.71,2.62,11.48,11.48,0,0,0,0,2.68,4.9,4.9,0,0,0,.78,2.21,4.13,4.13,0,0,0,1.81,1.49,7,7,0,0,0,2.92.52,12.17,12.17,0,0,0,2.71-.29,12.49,12.49,0,0,0,2.21-.71,10,10,0,0,0,1.7-.92c.17-.11.33-.22.47-.33l.17,1.79h7.1l.21-1.8Z"/><path id="Fill-49" class="cls-1" d="M724,18.57h0l-.14,1.22a11.93,11.93,0,0,1,4.65,1.89l-.06.08-10.34,18.7-5.79-18.78h0a15.11,15.11,0,0,1,4.87-1.84l.15-1.27H702.16l-.2,2.1,3.51,1.24,9.6,30,16.8-30.07,3.73-1.18.26-2.1Z"/></g><g id="Group-3"><g class="cls-5"><path id="Fill-1" class="cls-1" d="M853.14,30.37c.34,0,.64,0,.64-.43s-.32-.36-.6-.36h-.54v.79Zm-.5,1.54h-.45V29.2h1c.67,0,1,.23,1,.78s-.31.69-.72.74l.77,1.19h-.51l-.72-1.16h-.42Zm.49-3.43a1.92,1.92,0,0,0-1.92,2,1.91,1.91,0,1,0,1.92-2Zm0,4.47a2.45,2.45,0,1,1,2.44-2.44A2.37,2.37,0,0,1,853.13,33Z"/></g></g></g></g></g></svg>